<svg id="Layer_1" data-name="Layer 1" xmlns="http://www.w3.org/2000/svg" viewBox="0 0 236.84 61.58"><defs><style>.cls-1{font-size:10.12px;font-family:UTM-Alter-Gothic, UTM Alter Gothic;letter-spacing:-0.02em;}.cls-1,.cls-2{fill:#2c2c33;}.cls-3{fill:#ed1c24;}</style></defs><title>Logo TPA Lock</title><text class="cls-1" transform="translate(109.88 59.05) scale(1.45 1)">HAPPY LIFE WITH TPA LOCK</text><path class="cls-2" d="M154.94,25a5.65,5.65,0,1,0,5.64,5.64A5.65,5.65,0,0,0,154.94,25Zm-2.36,3.4a3.25,3.25,0,0,1,4.43-.26.37.37,0,0,1,.13.28.34.34,0,0,1-.12.28.35.35,0,0,1-.25.09.38.38,0,0,1-.23-.08,2.54,2.54,0,0,0-1.6-.58,2.53,2.53,0,0,0-2.52,2.51,2.51,2.51,0,0,0,2.52,2.51H155a.37.37,0,0,1,.37.31.38.38,0,0,1-.07.29.35.35,0,0,1-.28.14h-.1a3.31,3.31,0,0,1-.55,0,3.26,3.26,0,0,1-1.81-5.45Zm3.33,1.27A1.38,1.38,0,0,0,154,31.59l.13.11a.33.33,0,0,1,.09.44v0a.34.34,0,0,1-.29.16.31.31,0,0,1-.2-.07,2.06,2.06,0,1,1,2.53,0,.33.33,0,0,1-.21.07.34.34,0,0,1-.21-.61l.12-.11a1.38,1.38,0,0,0,.4-1A1.35,1.35,0,0,0,155.91,29.64Zm-1.61,1a.64.64,0,1,1,1,.52v.73a.37.37,0,0,1-.37.38.38.38,0,0,1-.38-.38v-.73A.65.65,0,0,1,154.3,30.6Zm3.58,3.33a4.43,4.43,0,0,1-7.38-3.32.34.34,0,0,1,.34-.34h.09a.34.34,0,0,1,.34.34,3.67,3.67,0,0,0,6.1,2.75.31.31,0,0,1,.22-.09.36.36,0,0,1,.25.11l.06.07a.32.32,0,0,1,.09.24A.3.3,0,0,1,157.88,33.93Zm-1.06-.67a.38.38,0,0,1-.21.07.37.37,0,0,1-.32-.19.36.36,0,0,1,.11-.48,2,2,0,0,0,.31-.27,2.48,2.48,0,0,0,.74-1.78.32.32,0,0,1,.09-.23.37.37,0,0,1,.23-.1h.09a.33.33,0,0,1,.33.32A3.26,3.26,0,0,1,156.82,33.26ZM159,31a.39.39,0,0,1-.27-.11.39.39,0,0,1-.11-.28,3.67,3.67,0,0,0-4.71-3.53l-.1,0a.38.38,0,0,1-.36-.25.37.37,0,0,1,.25-.5,4.34,4.34,0,0,1,1.25-.18,4.44,4.44,0,0,1,4.43,4.43A.38.38,0,0,1,159,31Z" transform="translate(-1 -0.75)"/><path class="cls-2" d="M166.61,13v6.29l-.43-.45a16.48,16.48,0,0,0-3.55-2.7V13a8.25,8.25,0,1,0-16.5,0v3.14a16.48,16.48,0,0,0-3.55,2.7l-.43.45V13a12.23,12.23,0,0,1,24.46,0Z" transform="translate(-1 -0.75)"/><path class="cls-3" d="M119.65,8.07V39.61h14.54a4.44,4.44,0,0,1,4.44,4.44v3.17H110.88v-42h5.89A2.88,2.88,0,0,1,119.65,8.07Z" transform="translate(-1 -0.75)"/><path class="cls-3" d="M215.51,37.38v9.84H207.3v-42h5.19a3,3,0,0,1,3,3V27.89l11.05-12.56A4.05,4.05,0,0,1,229.62,14h8.22l-13,14.17,11.27,19.1h-8a3.12,3.12,0,0,1-2.72-1.61l-6.49-11.75Z" transform="translate(-1 -0.75)"/><path class="cls-2" d="M34,5.28l-2.55,7.15H22.33V44.17a2.7,2.7,0,0,1-2.7,2.71h-6V12.43H1L3.54,5.28Z" transform="translate(-1 -0.75)"/><path class="cls-2" d="M69.09,18.61a13.9,13.9,0,0,1-2.43,8q-3.3,4.94-10,5.22l-.87,0h-10V44.17a2.7,2.7,0,0,1-2.7,2.71h-6V28a3.4,3.4,0,0,1,3.41-3.41H54.11q4,0,5.5-2.56a8,8,0,0,0,.79-3.94,5.1,5.1,0,0,0-1.79-4.34q-1.8-1.33-5.85-1.34H34.66l2.55-7.15H56.13q6.07,0,9.52,3.55T69.09,18.61Z" transform="translate(-1 -0.75)"/><path class="cls-2" d="M102.26,46.88H96.07a4.37,4.37,0,0,1-4.16-3.08L90.2,38.3H78l2.19-6.18h0l.11-.32a1.25,1.25,0,0,1,1.06-.68h6.41L82.53,14.64,78.19,27.8,77.1,31.11h0L73.59,41.83l-.7,2.07a4.37,4.37,0,0,1-4.14,3h-6L77.55,5.28h10.1Z" transform="translate(-1 -0.75)"/><path class="cls-3" d="M164,33.3h6.87A16.66,16.66,0,0,1,166.61,42l-.43.45a16.84,16.84,0,0,1-11.8,4.88,16.63,16.63,0,0,1-8.25-2.19,16.44,16.44,0,0,1-3.55-2.69l-.43-.45a16.71,16.71,0,0,1,0-22.71l.43-.45a16.71,16.71,0,0,1,23.6,0l.43.45a16.66,16.66,0,0,1,4.24,8.67H164A9.79,9.79,0,0,0,162.63,25a10.47,10.47,0,0,0-1.2-1.46,10,10,0,0,0-14.1,0,9.81,9.81,0,0,0-1.2,1.46,10,10,0,0,0,0,11.19,9.73,9.73,0,0,0,1.2,1.45,10,10,0,0,0,14.1,0,10.38,10.38,0,0,0,1.2-1.45A9.91,9.91,0,0,0,164,33.3Z" transform="translate(-1 -0.75)"/><path class="cls-3" d="M205.05,36.6a16.68,16.68,0,0,1-32-3.3h6.87a9.53,9.53,0,0,0,1.63,3.3,9.32,9.32,0,0,0,.92,1.06,10,10,0,0,0,14.09,0h0a3.5,3.5,0,0,1,2.45-1Z" transform="translate(-1 -0.75)"/><path class="cls-3" d="M205.05,24.62h-6.12a3.43,3.43,0,0,1-2.4-1h0a10,10,0,0,0-14.09,0,10.17,10.17,0,0,0-.92,1.05,9.75,9.75,0,0,0-1.63,3.31H173a16.69,16.69,0,0,1,32-3.31Z" transform="translate(-1 -0.75)"/><path class="cls-2" d="M195.9,30.61a1.79,1.79,0,0,1-.51,1.24,1.76,1.76,0,0,1-1.23.51h-1.57v2.71a1.22,1.22,0,0,1-2.44,0V32.36h-2.23v2.2a1.07,1.07,0,0,1-2.13,0v-2.2H159.33V28.87h34.83A1.74,1.74,0,0,1,195.9,30.61Z" transform="translate(-1 -0.75)"/></svg>